<svg xmlns="http://www.w3.org/2000/svg" viewBox="0 0 630 630"><defs><style>.cls-1{fill:#161616;}.cls-2{fill:#fff;stroke:#161616;stroke-linejoin:round;stroke-width:7.42px;}.cls-2,.cls-3{stroke-linecap:round;}.cls-3{fill:none;stroke:#d4af37;stroke-linejoin:bevel;stroke-width:9.89px;}.cls-4{fill:#d4af37;}</style></defs><title>favicon</title><g id="Capa_2" data-name="Capa 2"><g id="Zaquiel_Money" data-name="Zaquiel Money"><circle class="cls-1" cx="315" cy="315" r="315"/><g id="iso"><g id="iso-2" data-name="iso"><path id="face" class="cls-2" d="M201.54,463.39s-13,6.81-20.7-3.4-12.48-21.55-11.06-33.47,4.82-14.74,2.55-23.82-3.63-18.54-2.8-22.92-3.65-17.73.41-22.43,10.84-6.08,15.88-3.67l5.05,2.42s-14.35-67.14-1.3-111.38c0,0-20.86-44.51-68.71-40.23a2.45,2.45,0,0,1-2.67-2.84c1.36-7.91,6.72-28.16,26.53-32.79a2.45,2.45,0,0,0,1.68-3.33c-2.81-7-12.1-24.34-34.31-22.06a2.46,2.46,0,0,1-2.58-3.32c2.79-7.07,11.18-21.27,33.5-21.09a2.45,2.45,0,0,0,2.51-2.57c-.3-4.92-1.51-15.13-6.42-16.91-6.08-2.22,14.65-6,23.24-1.18a2.51,2.51,0,0,0,3.2-.53c2.87-3.5,8.37-12,3.56-21a2.43,2.43,0,0,1,.6-3c7.35-6.17,40-29.14,79.6,10.73a2.48,2.48,0,0,0,4.06-.76A38.27,38.27,0,0,0,254,55.2,2.46,2.46,0,0,1,257.13,52a31.2,31.2,0,0,1,10.34,6.2,2.47,2.47,0,0,0,4.22-1.48c.64-6.47,2.28-16.54,6.54-25.15A2.5,2.5,0,0,1,282,30.7a49,49,0,0,1,14.38,18.44,2.46,2.46,0,0,0,4.67-.55A93.13,93.13,0,0,0,302.17,22a2.45,2.45,0,0,1,3.48-2.53,84.54,84.54,0,0,1,43.24,49,2.45,2.45,0,0,0,2.83,1.64c4.11-.9,13-3.86,17-13a2.47,2.47,0,0,1,4.6.11A38,38,0,0,1,373,84.06a2.46,2.46,0,0,0,3.18,3.22c9.69-3.76,29.15-13.19,38.63-31a2.45,2.45,0,0,1,4-.44c4.06,4.65,11.61,14.93,11.52,27a2.44,2.44,0,0,0,2.59,2.42c4.52-.28,13.82-1.73,21.19-8.69a2.46,2.46,0,0,1,4.12,2A88.39,88.39,0,0,1,454,101.68a2.45,2.45,0,0,0,2.24,3.26c4.61.13,13-.48,19.05-5.82a2.46,2.46,0,0,1,4.08,1.41c.6,3.94.73,9.73-2.1,14.8a2.48,2.48,0,0,0,2.58,3.72c6.84-1.36,17.48-4.12,24.07-9a2.49,2.49,0,0,1,3.9,2.32c-.73,6.85-3.09,17.68-10.55,25.89a2.46,2.46,0,0,0,1,4c6.06,2,17.66,6.89,25.11,16.62a2.5,2.5,0,0,1,.37,2.3,33.46,33.46,0,0,1-13.51,17.11,2.49,2.49,0,0,0-.12,4.2c5,3.23,13.67,10.19,17.84,21.25a2.5,2.5,0,0,1-1.7,3.32c-9.61,2.43-44,12.29-71.2,34.6,0,0,13.26,50.31,5.52,114.42,0,0,10.45-9.67,18.22-3s-1.11,38,.56,45,7.77,27.77,1.66,43.87-11.11,23.64-18.6,23.64a15.23,15.23,0,0,1-11.67-5.86s-5.07,33-13.51,44.21-38.18,55-57.7,73-50.09,16-50.09,16-31.1,1.95-55.69-19.13-57.38-63.23-60.51-74.16S201.54,463.39,201.54,463.39Z"/><path id="beard" class="cls-3" d="M278.5,473c14.48-2.26,56.91-7.34,101.11,2a8.54,8.54,0,0,1,6.42,6.09c3.63,13.07,12.34,48.46,5.19,64.28-8.85,19.61-22.45,46.49-62.61,46.49S269.79,557.1,266,544.13c-3.64-12.43-6.41-27.19,5.64-65.19A8.63,8.63,0,0,1,278.5,473Z"/><path id="glass" class="cls-4" d="M452.74,324.65a2.23,2.23,0,0,0-2-1.18h-15.5a2.16,2.16,0,0,1-.66-.1c-2.95-.9-28.55-7.64-90.33,7.7A83.86,83.86,0,0,1,325,333.83a83.86,83.86,0,0,1-19.25-2.76c-61.78-15.34-87.38-8.6-90.33-7.7a2.16,2.16,0,0,1-.66.1h-15.5a2.23,2.23,0,0,0-2,1.18c-3.27,6.38-1.2,11,0,12.92a2.22,2.22,0,0,0,1.67,1l5.21.56a2.26,2.26,0,0,1,2,2.32c-.29,14.38,3,29.78,6.31,37.37a38,38,0,0,0,17.65,18.63c11.36,5.79,30.05,11.25,49-.65a81.55,81.55,0,0,0,35.56-49.72,2.24,2.24,0,0,1,.83-1.33c3.18-2.41,15.82-2.41,19,0a2.24,2.24,0,0,1,.83,1.33,81.55,81.55,0,0,0,35.56,49.72c18.95,11.9,37.64,6.44,49,.65a38,38,0,0,0,17.65-18.63c3.33-7.59,6.6-23,6.31-37.37a2.26,2.26,0,0,1,2-2.32l5.21-.56a2.22,2.22,0,0,0,1.67-1C453.94,335.69,456,331,452.74,324.65Z"/></g><g id="earings"><circle class="cls-4" cx="194.4" cy="446.62" r="4.86"/><circle class="cls-4" cx="459.74" cy="446.62" r="4.86"/></g></g></g></g></svg>