<svg xmlns="http://www.w3.org/2000/svg" viewBox="0 0 426.25 581.28"><defs><style>.cls-1{fill:#fff;stroke:#161616;stroke-linejoin:round;stroke-width:7.42px;}.cls-1,.cls-2{stroke-linecap:round;}.cls-2{fill:none;stroke:#d4af37;stroke-linejoin:bevel;stroke-width:9.89px;}.cls-3{fill:#d4af37;}</style></defs><title>iso</title><g id="Capa_2" data-name="Capa 2"><g id="Zaquiel_Money" data-name="Zaquiel Money"><g id="iso"><g id="iso-2" data-name="iso"><path id="face" class="cls-1" d="M95.91,447.84s-13,6.81-20.7-3.4S62.73,422.88,64.15,411s4.82-14.74,2.56-23.82-3.63-18.54-2.8-22.92-3.66-17.73.41-22.43,10.83-6.08,15.88-3.67l5,2.42S70.89,273.41,84,229.17c0,0-20.87-44.51-68.71-40.23a2.45,2.45,0,0,1-2.67-2.84c1.35-7.91,6.72-28.16,26.52-32.79A2.46,2.46,0,0,0,40.78,150C38,143,28.67,125.64,6.46,127.92a2.46,2.46,0,0,1-2.58-3.32c2.79-7.07,11.19-21.27,33.51-21.1a2.44,2.44,0,0,0,2.51-2.56C39.6,96,38.39,85.81,33.47,84c-6.08-2.21,14.65-6,23.24-1.17a2.5,2.5,0,0,0,3.2-.53c2.88-3.51,8.37-12,3.57-21a2.42,2.42,0,0,1,.59-3c7.35-6.17,40-29.14,79.61,10.72a2.47,2.47,0,0,0,4-.75,38.17,38.17,0,0,0,.62-28.65,2.46,2.46,0,0,1,3.15-3.19,31.2,31.2,0,0,1,10.34,6.2,2.48,2.48,0,0,0,4.23-1.48c.63-6.47,2.27-16.54,6.53-25.15a2.5,2.5,0,0,1,3.77-.88,48.77,48.77,0,0,1,14.38,18.44,2.47,2.47,0,0,0,4.68-.55,93.17,93.17,0,0,0,1.11-26.56A2.46,2.46,0,0,1,200,4a84.47,84.47,0,0,1,43.24,49,2.47,2.47,0,0,0,2.83,1.64c4.12-.9,13-3.86,17-13a2.47,2.47,0,0,1,4.6.11,38,38,0,0,1-.31,26.78,2.46,2.46,0,0,0,3.18,3.22c9.68-3.76,29.14-13.2,38.62-31a2.46,2.46,0,0,1,4-.44c4.06,4.65,11.6,14.93,11.52,27a2.44,2.44,0,0,0,2.59,2.43c4.52-.28,13.81-1.73,21.18-8.69a2.46,2.46,0,0,1,4.12,2c-.35,6-1.36,15-4.21,23.11a2.46,2.46,0,0,0,2.25,3.26c4.6.13,13-.48,19-5.82A2.45,2.45,0,0,1,373.78,85c.61,3.94.74,9.73-2.09,14.8a2.47,2.47,0,0,0,2.57,3.72c6.85-1.36,17.49-4.12,24.07-9a2.48,2.48,0,0,1,3.9,2.32c-.72,6.85-3.08,17.68-10.55,25.89a2.46,2.46,0,0,0,1,4c6.05,2,17.65,6.89,25.11,16.62a2.46,2.46,0,0,1,.36,2.3,33.42,33.42,0,0,1-13.5,17.11,2.49,2.49,0,0,0-.12,4.2c5,3.23,13.67,10.19,17.84,21.25a2.51,2.51,0,0,1-1.71,3.32c-9.61,2.43-44,12.29-71.2,34.6,0,0,13.27,50.31,5.53,114.41,0,0,10.44-9.66,18.22-3s-1.11,38,.55,45,7.78,27.78,1.67,43.88-11.11,23.64-18.61,23.64a15.19,15.19,0,0,1-11.66-5.87s-5.07,33-13.51,44.22-38.18,55-57.7,73-50.1,16-50.1,16-31.1,2-55.69-19.13-57.38-63.23-60.5-74.16S95.91,447.84,95.91,447.84Z"/><path id="beard" class="cls-2" d="M172.87,457.47c14.48-2.26,56.92-7.34,101.11,2a8.54,8.54,0,0,1,6.42,6.09c3.63,13.06,12.35,48.46,5.2,64.28-8.86,19.61-22.45,46.49-62.62,46.49s-58.82-34.78-62.61-47.75c-3.64-12.43-6.41-27.19,5.64-65.19A8.6,8.6,0,0,1,172.87,457.47Z"/><path id="glass" class="cls-3" d="M347.12,309.1a2.24,2.24,0,0,0-2-1.18h-15.5a2.11,2.11,0,0,1-.66-.1c-3-.9-28.56-7.64-90.34,7.7a83.71,83.71,0,0,1-19.24,2.76,83.74,83.74,0,0,1-19.25-2.76c-61.78-15.34-87.38-8.6-90.34-7.7a2.11,2.11,0,0,1-.66.1H93.64a2.24,2.24,0,0,0-2,1.18c-3.27,6.38-1.19,11,0,12.92a2.24,2.24,0,0,0,1.67,1l5.22.56a2.27,2.27,0,0,1,2,2.32c-.3,14.38,3,29.78,6.3,37.37a38,38,0,0,0,17.65,18.63c11.37,5.79,30.06,11.25,49-.65A81.5,81.5,0,0,0,209,331.54a2.29,2.29,0,0,1,.83-1.33c3.18-2.41,15.83-2.41,19,0a2.29,2.29,0,0,1,.83,1.33,81.5,81.5,0,0,0,35.56,49.72c18.94,11.9,37.63,6.44,49,.65a38,38,0,0,0,17.65-18.63c3.32-7.59,6.6-23,6.3-37.37a2.27,2.27,0,0,1,2-2.32l5.22-.56a2.24,2.24,0,0,0,1.67-1C348.31,320.14,350.39,315.48,347.12,309.1Z"/></g><g id="earings"><circle class="cls-3" cx="88.77" cy="431.07" r="4.86"/><circle class="cls-3" cx="354.12" cy="431.07" r="4.86"/></g></g></g></g></svg>